<svg width="20" height="20" viewBox="0 0 20 20" fill="none" xmlns="http://www.w3.org/2000/svg">
<path d="M17.5 9.99999C17.96 9.99999 18.3375 9.62583 18.2916 9.16833C18.0995 7.25513 17.2517 5.46725 15.8919 4.10776C14.5321 2.74828 12.744 1.90086 10.8308 1.70916C10.3725 1.66333 9.99915 2.04083 9.99915 2.50083V9.16749C9.99915 9.38851 10.0869 9.60047 10.2432 9.75675C10.3995 9.91303 10.6115 10.0008 10.8325 10.0008L17.5 9.99999Z" stroke="#45556C" stroke-width="1.66667" stroke-linecap="round" stroke-linejoin="round"/>
<path d="M17.6751 13.2417C17.1449 14.4954 16.3157 15.6002 15.2599 16.4594C14.2042 17.3187 12.954 17.9062 11.6187 18.1707C10.2835 18.4351 8.90374 18.3685 7.60017 17.9765C6.29661 17.5845 5.10891 16.8792 4.1409 15.9222C3.1729 14.9652 2.45406 13.7856 2.04725 12.4866C1.64043 11.1876 1.55802 9.80874 1.80722 8.47053C2.05641 7.13232 2.62963 5.87553 3.47676 4.81003C4.32388 3.74453 5.41912 2.90277 6.66672 2.35834" stroke="#45556C" stroke-width="1.66667" stroke-linecap="round" stroke-linejoin="round"/>
</svg>
